{
    "asset": {
        "version": "2.0",
        "generator": "Open Asset Import Library (assimp v5.0.5eb040c7)"
    },
    "accessors": [
        {
            "bufferView": 0,
            "byteOffset": 0,
            "componentType": 5126,
            "count": 6851,
            "type": "VEC3",
            "max": [
                3.4059696197509767,
                11.804306030273438,
                12.506368637084961
            ],
            "min": [
                -3.5523300170898439,
                -0.008954048156738282,
                -5.2603583335876469
            ]
        },
        {
            "bufferView": 1,
            "byteOffset": 0,
            "componentType": 5125,
            "count": 36378,
            "type": "SCALAR",
            "max": [
                6850
            ],
            "min": [
                0
            ]
        }
    ],
    "buffers": [
        {
            "byteLength": 227724,
            "uri": "result.bin"
        }
    ],
    "bufferViews": [
        {
            "buffer": 0,
            "byteOffset": 0,
            "byteLength": 82212,
            "target": 34962
        },
        {
            "buffer": 0,
            "byteOffset": 82212,
            "byteLength": 145512,
            "target": 34963
        }
    ],
    "images": [
        {
            "uri": "textures\\5.png"
        }
    ],
    "materials": [
        {
            "name": "Material_44",
            "pbrMetallicRoughness": {
                "baseColorTexture": {
                    "index": 0
                },
                "metallicFactor": 0.0,
                "roughnessFactor": 5.960464477539063e-8
            }
        }
    ],
    "meshes": [
        {
            "name": "mesh_id31",
            "primitives": [
                {
                    "mode": 4,
                    "material": 0,
                    "indices": 1,
                    "attributes": {
                        "POSITION": 0
                    }
                }
            ]
        }
    ],
    "nodes": [
        {
            "name": "RootNode",
            "children": [
                1
            ]
        },
        {
            "name": "root",
            "children": [
                2
            ]
        },
        {
            "name": "node_id30",
            "matrix": [
                0.043341126292943957,
                0.0,
                0.0,
                0.0,
                0.0,
                0.043341126292943957,
                0.0,
                0.0,
                0.0,
                0.0,
                0.043341126292943957,
                0.0,
                0.0031716858502477409,
                -0.25561216473579409,
                0.22798936069011689,
                1.0
            ],
            "mesh": 0
        }
    ],
    "samplers": [
        {}
    ],
    "scenes": [
        {
            "nodes": [
                0
            ]
        }
    ],
    "textures": [
        {
            "source": 0,
            "sampler": 0
        }
    ],
    "scene": 0
}