{
    "asset": {
        "version": "2.0",
        "generator": "Open Asset Import Library (assimp v5.0.5eb040c7)"
    },
    "accessors": [
        {
            "bufferView": 0,
            "byteOffset": 0,
            "componentType": 5126,
            "count": 29794,
            "type": "VEC3",
            "max": [
                1.174051284790039,
                5.460117340087891,
                4.878662109375
            ],
            "min": [
                -1.1742029190063477,
                -0.03855717182159424,
                -5.140979766845703
            ]
        },
        {
            "bufferView": 1,
            "byteOffset": 0,
            "componentType": 5125,
            "count": 158541,
            "type": "SCALAR",
            "max": [
                29793
            ],
            "min": [
                0
            ]
        }
    ],
    "buffers": [
        {
            "byteLength": 991692,
            "uri": "result.bin"
        }
    ],
    "bufferViews": [
        {
            "buffer": 0,
            "byteOffset": 0,
            "byteLength": 357528,
            "target": 34962
        },
        {
            "buffer": 0,
            "byteOffset": 357528,
            "byteLength": 634164,
            "target": 34963
        }
    ],
    "images": [
        {
            "uri": "textures\\5.png"
        }
    ],
    "materials": [
        {
            "name": "Material_44",
            "pbrMetallicRoughness": {
                "baseColorTexture": {
                    "index": 0
                },
                "metallicFactor": 0.0,
                "roughnessFactor": 5.960464477539063e-8
            }
        }
    ],
    "meshes": [
        {
            "name": "mesh_id31",
            "primitives": [
                {
                    "mode": 4,
                    "material": 0,
                    "indices": 1,
                    "attributes": {
                        "POSITION": 0
                    }
                }
            ]
        }
    ],
    "nodes": [
        {
            "name": "RootNode",
            "children": [
                1
            ]
        },
        {
            "name": "root",
            "children": [
                2
            ]
        },
        {
            "name": "node_id30",
            "matrix": [
                0.09311335533857346,
                0.0,
                0.0,
                0.0,
                0.0,
                0.09311335533857346,
                0.0,
                0.0,
                0.0,
                0.0,
                0.09311335533857346,
                0.0,
                0.000007026045750535559,
                -0.25241005420684817,
                0.4786933660507202,
                1.0
            ],
            "mesh": 0
        }
    ],
    "samplers": [
        {}
    ],
    "scenes": [
        {
            "nodes": [
                0
            ]
        }
    ],
    "textures": [
        {
            "source": 0,
            "sampler": 0
        }
    ],
    "scene": 0
}